<mxfile host="app.diagrams.net" modified="2021-11-08T15:56:35.820Z" agent="5.0 (Windows NT 10.0; Win64; x64) AppleWebKit/537.36 (KHTML, like Gecko) Chrome/95.0.4638.69 Safari/537.36" etag="npR8T0bf75lMDv5YTF1t" version="15.7.0" type="github">
  <diagram id="Q9evCOIq9pUZQWNZ7taY" name="Page-1">
    <mxGraphModel dx="2249" dy="762" grid="1" gridSize="10" guides="1" tooltips="1" connect="1" arrows="1" fold="1" page="1" pageScale="1" pageWidth="827" pageHeight="1169" math="0" shadow="0">
      <root>
        <mxCell id="0" />
        <mxCell id="1" parent="0" />
        <mxCell id="pLadtGYQ4u8_2Hg9Ge2t-37" style="edgeStyle=orthogonalEdgeStyle;rounded=0;orthogonalLoop=1;jettySize=auto;html=1;entryX=1;entryY=0.5;entryDx=0;entryDy=0;fontSize=13;fontColor=#000000;" edge="1" parent="1" source="pLadtGYQ4u8_2Hg9Ge2t-3" target="pLadtGYQ4u8_2Hg9Ge2t-10">
          <mxGeometry relative="1" as="geometry" />
        </mxCell>
        <mxCell id="pLadtGYQ4u8_2Hg9Ge2t-38" style="edgeStyle=orthogonalEdgeStyle;rounded=0;orthogonalLoop=1;jettySize=auto;html=1;fontSize=13;fontColor=#000000;" edge="1" parent="1" source="pLadtGYQ4u8_2Hg9Ge2t-3" target="pLadtGYQ4u8_2Hg9Ge2t-11">
          <mxGeometry relative="1" as="geometry" />
        </mxCell>
        <mxCell id="pLadtGYQ4u8_2Hg9Ge2t-39" style="edgeStyle=orthogonalEdgeStyle;rounded=0;orthogonalLoop=1;jettySize=auto;html=1;entryX=1;entryY=0.75;entryDx=0;entryDy=0;fontSize=13;fontColor=#000000;" edge="1" parent="1" source="pLadtGYQ4u8_2Hg9Ge2t-3" target="pLadtGYQ4u8_2Hg9Ge2t-11">
          <mxGeometry relative="1" as="geometry" />
        </mxCell>
        <mxCell id="pLadtGYQ4u8_2Hg9Ge2t-3" value="Actor" style="shape=umlActor;verticalLabelPosition=bottom;verticalAlign=top;html=1;outlineConnect=0;" vertex="1" parent="1">
          <mxGeometry x="750" y="270" width="30" height="60" as="geometry" />
        </mxCell>
        <mxCell id="pLadtGYQ4u8_2Hg9Ge2t-6" value="&lt;font color=&quot;#000000&quot;&gt;Managed Customers and Applications&lt;/font&gt;" style="rounded=1;whiteSpace=wrap;html=1;fontColor=#FF66B3;verticalAlign=top;" vertex="1" parent="1">
          <mxGeometry x="-20" y="50" width="120" height="60" as="geometry" />
        </mxCell>
        <mxCell id="pLadtGYQ4u8_2Hg9Ge2t-7" style="edgeStyle=orthogonalEdgeStyle;rounded=0;orthogonalLoop=1;jettySize=auto;html=1;exitX=0.75;exitY=0;exitDx=0;exitDy=0;entryX=1;entryY=0;entryDx=0;entryDy=0;fontSize=13;fontColor=#000000;" edge="1" parent="1" source="pLadtGYQ4u8_2Hg9Ge2t-6" target="pLadtGYQ4u8_2Hg9Ge2t-6">
          <mxGeometry relative="1" as="geometry" />
        </mxCell>
        <mxCell id="pLadtGYQ4u8_2Hg9Ge2t-8" value="Manage Cars" style="rounded=1;whiteSpace=wrap;html=1;fontSize=13;fontColor=#000000;verticalAlign=top;" vertex="1" parent="1">
          <mxGeometry x="-20" y="140" width="120" height="60" as="geometry" />
        </mxCell>
        <mxCell id="pLadtGYQ4u8_2Hg9Ge2t-10" value="Login and Logout from System" style="rounded=1;whiteSpace=wrap;html=1;fontSize=13;fontColor=#000000;verticalAlign=top;" vertex="1" parent="1">
          <mxGeometry x="260" y="180" width="120" height="60" as="geometry" />
        </mxCell>
        <mxCell id="pLadtGYQ4u8_2Hg9Ge2t-11" value="Update profile&lt;br&gt;" style="rounded=1;whiteSpace=wrap;html=1;fontSize=13;fontColor=#000000;verticalAlign=top;" vertex="1" parent="1">
          <mxGeometry x="260" y="260" width="120" height="60" as="geometry" />
        </mxCell>
        <mxCell id="pLadtGYQ4u8_2Hg9Ge2t-12" value="Change account password" style="rounded=1;whiteSpace=wrap;html=1;fontSize=13;fontColor=#000000;verticalAlign=top;" vertex="1" parent="1">
          <mxGeometry x="260" y="340" width="120" height="60" as="geometry" />
        </mxCell>
        <mxCell id="pLadtGYQ4u8_2Hg9Ge2t-13" value="Create invoice" style="rounded=1;whiteSpace=wrap;html=1;fontSize=13;fontColor=#000000;verticalAlign=top;" vertex="1" parent="1">
          <mxGeometry x="500" y="430" width="120" height="60" as="geometry" />
        </mxCell>
        <mxCell id="pLadtGYQ4u8_2Hg9Ge2t-14" value="View requests" style="rounded=1;whiteSpace=wrap;html=1;fontSize=13;fontColor=#000000;verticalAlign=top;" vertex="1" parent="1">
          <mxGeometry x="500" y="350" width="120" height="60" as="geometry" />
        </mxCell>
        <mxCell id="pLadtGYQ4u8_2Hg9Ge2t-15" value="Add car&amp;nbsp;" style="rounded=1;whiteSpace=wrap;html=1;fontSize=13;fontColor=#000000;verticalAlign=top;" vertex="1" parent="1">
          <mxGeometry x="490" y="510" width="120" height="60" as="geometry" />
        </mxCell>
        <mxCell id="pLadtGYQ4u8_2Hg9Ge2t-31" style="edgeStyle=orthogonalEdgeStyle;rounded=0;orthogonalLoop=1;jettySize=auto;html=1;entryX=-0.008;entryY=0.4;entryDx=0;entryDy=0;entryPerimeter=0;fontSize=13;fontColor=#000000;" edge="1" parent="1" source="pLadtGYQ4u8_2Hg9Ge2t-16" target="pLadtGYQ4u8_2Hg9Ge2t-6">
          <mxGeometry relative="1" as="geometry" />
        </mxCell>
        <mxCell id="pLadtGYQ4u8_2Hg9Ge2t-32" style="edgeStyle=orthogonalEdgeStyle;rounded=0;orthogonalLoop=1;jettySize=auto;html=1;entryX=0;entryY=0.25;entryDx=0;entryDy=0;fontSize=13;fontColor=#000000;" edge="1" parent="1" source="pLadtGYQ4u8_2Hg9Ge2t-16" target="pLadtGYQ4u8_2Hg9Ge2t-8">
          <mxGeometry relative="1" as="geometry" />
        </mxCell>
        <mxCell id="pLadtGYQ4u8_2Hg9Ge2t-34" style="edgeStyle=orthogonalEdgeStyle;rounded=0;orthogonalLoop=1;jettySize=auto;html=1;entryX=0.5;entryY=0;entryDx=0;entryDy=0;fontSize=13;fontColor=#000000;" edge="1" parent="1" source="pLadtGYQ4u8_2Hg9Ge2t-16" target="pLadtGYQ4u8_2Hg9Ge2t-10">
          <mxGeometry relative="1" as="geometry" />
        </mxCell>
        <mxCell id="pLadtGYQ4u8_2Hg9Ge2t-35" style="edgeStyle=orthogonalEdgeStyle;rounded=0;orthogonalLoop=1;jettySize=auto;html=1;entryX=0;entryY=0.25;entryDx=0;entryDy=0;fontSize=13;fontColor=#000000;" edge="1" parent="1" source="pLadtGYQ4u8_2Hg9Ge2t-16" target="pLadtGYQ4u8_2Hg9Ge2t-11">
          <mxGeometry relative="1" as="geometry" />
        </mxCell>
        <mxCell id="pLadtGYQ4u8_2Hg9Ge2t-16" value="Actor" style="shape=umlActor;verticalLabelPosition=bottom;verticalAlign=top;outlineConnect=0;fontSize=13;fontColor=#000000;html=1;" vertex="1" parent="1">
          <mxGeometry x="-220" y="160" width="30" height="60" as="geometry" />
        </mxCell>
        <mxCell id="pLadtGYQ4u8_2Hg9Ge2t-36" style="edgeStyle=orthogonalEdgeStyle;rounded=0;orthogonalLoop=1;jettySize=auto;html=1;entryX=0;entryY=0.5;entryDx=0;entryDy=0;fontSize=13;fontColor=#000000;" edge="1" parent="1" source="pLadtGYQ4u8_2Hg9Ge2t-21" target="pLadtGYQ4u8_2Hg9Ge2t-12">
          <mxGeometry relative="1" as="geometry" />
        </mxCell>
        <mxCell id="pLadtGYQ4u8_2Hg9Ge2t-21" value="Customer" style="rounded=1;whiteSpace=wrap;html=1;fontSize=13;fontColor=#000000;verticalAlign=top;" vertex="1" parent="1">
          <mxGeometry x="-250" y="220" width="100" height="30" as="geometry" />
        </mxCell>
        <mxCell id="pLadtGYQ4u8_2Hg9Ge2t-40" style="edgeStyle=orthogonalEdgeStyle;rounded=0;orthogonalLoop=1;jettySize=auto;html=1;entryX=1;entryY=0.5;entryDx=0;entryDy=0;fontSize=13;fontColor=#000000;" edge="1" parent="1" source="pLadtGYQ4u8_2Hg9Ge2t-22" target="pLadtGYQ4u8_2Hg9Ge2t-14">
          <mxGeometry relative="1" as="geometry" />
        </mxCell>
        <mxCell id="pLadtGYQ4u8_2Hg9Ge2t-41" style="edgeStyle=orthogonalEdgeStyle;rounded=0;orthogonalLoop=1;jettySize=auto;html=1;entryX=1.008;entryY=0.633;entryDx=0;entryDy=0;entryPerimeter=0;fontSize=13;fontColor=#000000;" edge="1" parent="1" source="pLadtGYQ4u8_2Hg9Ge2t-22" target="pLadtGYQ4u8_2Hg9Ge2t-13">
          <mxGeometry relative="1" as="geometry" />
        </mxCell>
        <mxCell id="pLadtGYQ4u8_2Hg9Ge2t-42" style="edgeStyle=orthogonalEdgeStyle;rounded=0;orthogonalLoop=1;jettySize=auto;html=1;entryX=1;entryY=0.75;entryDx=0;entryDy=0;fontSize=13;fontColor=#000000;" edge="1" parent="1" source="pLadtGYQ4u8_2Hg9Ge2t-22" target="pLadtGYQ4u8_2Hg9Ge2t-15">
          <mxGeometry relative="1" as="geometry" />
        </mxCell>
        <mxCell id="pLadtGYQ4u8_2Hg9Ge2t-22" value="Agency" style="rounded=1;whiteSpace=wrap;html=1;fontSize=13;fontColor=#000000;verticalAlign=top;" vertex="1" parent="1">
          <mxGeometry x="711.5" y="330" width="107" height="30" as="geometry" />
        </mxCell>
      </root>
    </mxGraphModel>
  </diagram>
</mxfile>
